 <svg  version="1.0" xmlns="http://www.w3.org/2000/svg"  width="149.000000pt" height="144.000000pt" viewBox="0 0 149.000000 144.000000"  preserveAspectRatio="xMidYMid meet">  <g transform="translate(0.000000,144.000000) scale(0.100000,-0.100000)" fill="#ddae2c" stroke="none"> <path d="M762 1202 c-1 -45 -9 -108 -18 -140 -15 -52 -15 -61 -1 -95 9 -20 21 -37 26 -37 29 0 41 84 20 137 -7 15 -15 71 -19 123 l-7 95 -1 -83z"/> <path d="M838 1071 c-3 -67 -9 -95 -24 -116 -38 -55 -51 -80 -46 -89 3 -5 0 -6 -6 -2 -6 4 -9 13 -6 20 3 8 -7 33 -23 57 -22 33 -29 59 -34 118 -5 59 -6 52 -3 -31 4 -113 17 -160 52 -192 19 -16 24 -17 38 -5 36 29 55 95 61 214 3 63 4 115 1 115 -3 0 -7 -40 -10 -89z"/> <path d="M892 1096 c-4 -130 -20 -195 -62 -240 -20 -23 -44 -54 -53 -71 -11 -21 -16 -25 -17 -12 0 10 -20 39 -43 65 -24 26 -47 56 -52 67 -4 11 -11 72 -15 135 l-7 115 -1 -100 c-2 -121 32 -258 70 -288 13 -10 30 -24 39 -31 14 -12 22 -9 57 23 33 29 44 48 58 101 29 114 35 158 31 232 l-3 73 -2 -69z"/> <path d="M900 838 c0 -95 -14 -132 -66 -175 -26 -20 -50 -48 -56 -62 l-9 -26 -15 30 c-8 17 -30 40 -50 53 -39 26 -59 65 -74 144 l-9 53 4 -53 c6 -77 61 -198 108 -235 l37 -31 36 35 c57 54 96 148 102 247 2 45 2 82 -2 82 -3 0 -6 -28 -6 -62z"/> <path d="M660 781 c0 -31 36 -92 69 -119 l38 -31 38 31 c35 30 65 80 65 112 0 18 -85 -62 -95 -89 -6 -19 -7 -18 -18 7 -13 29 -97 107 -97 89z"/> <path d="M640 640 c0 -9 35 -95 45 -110 6 -8 26 -27 45 -41 l35 -27 42 29 c32 22 47 42 62 84 26 69 26 79 2 39 -10 -17 -33 -41 -51 -54 -17 -12 -36 -34 -41 -48 l-10 -26 -18 30 c-10 16 -30 38 -45 47 -15 10 -36 32 -46 50 -11 18 -20 30 -20 27z"/> <path d="M657 505 c28 -62 36 -71 71 -89 l32 -17 0 -99 c0 -64 4 -100 11 -100 7 0 8 30 3 94 l-7 94 40 26 c22 15 47 42 56 61 31 66 21 62 -67 -22 l-33 -32 -13 25 c-7 13 -22 27 -33 30 -11 4 -33 20 -49 38 l-29 31 18 -40z"/> </g> </svg> 